<svg width="16" height="22" viewBox="0 0 16 22" fill="none" xmlns="http://www.w3.org/2000/svg">
<path fill-rule="evenodd" clip-rule="evenodd" d="M14.5322 17.3154H2.03807V19.0835C2.03807 19.7344 2.56579 20.2621 3.21676 20.2621H13.3535C14.0045 20.2621 14.5322 19.7344 14.5322 19.0835V17.3154ZM0.859375 16.1367V19.0835C0.859375 20.3854 1.91481 21.4408 3.21676 21.4408H13.3535C14.6555 21.4408 15.7109 20.3854 15.7109 19.0835V16.1367H0.859375Z" fill="#1A262F"/>
<path fill-rule="evenodd" clip-rule="evenodd" d="M14.5322 12.0107H2.03807V16.0183H14.5322V12.0107ZM0.859375 10.832V17.197H15.7109V10.832H0.859375Z" fill="#1A262F"/>
<path fill-rule="evenodd" clip-rule="evenodd" d="M9.11107 1.40135H7.4609C6.80993 1.40135 6.28221 1.92907 6.28221 2.58005V3.28726H10.2898V2.58004C10.2898 1.92907 9.76205 1.40135 9.11107 1.40135ZM7.4609 0.222656C6.15895 0.222656 5.10352 1.2781 5.10352 2.58005V4.46595H11.4685V2.58004C11.4685 1.2781 10.413 0.222656 9.11107 0.222656H7.4609Z" fill="#1A262F"/>
<path fill-rule="evenodd" clip-rule="evenodd" d="M5.70868 3.34766H10.8389L10.9805 3.43427L10.673 3.937C10.9805 3.43427 10.9803 3.43414 10.9805 3.43427L10.9828 3.43569L10.9868 3.43813L10.9995 3.44607C11.0101 3.45272 11.0248 3.46209 11.0435 3.47414C11.0808 3.49825 11.1337 3.53313 11.2 3.57858C11.3325 3.66945 11.5189 3.80284 11.7411 3.97717C12.1848 4.32518 12.7761 4.83983 13.3685 5.50884C14.5482 6.84124 15.7708 8.83139 15.7708 11.3628V11.9521H0.839377L0.8027 11.402C0.699784 9.85824 1.58313 6.32722 5.55419 3.45923L5.70868 3.34766ZM10.4977 4.52635H6.09197C3.03938 6.79394 2.13684 9.40127 1.99476 10.7734H14.5658C14.3985 8.90826 13.4598 7.39012 12.486 6.29021C11.9512 5.68624 11.4153 5.21962 11.0137 4.90462C10.8133 4.74744 10.6474 4.62889 10.5334 4.55069C10.5208 4.54208 10.5089 4.53397 10.4977 4.52635Z" fill="#1A262F"/>
</svg>
