<svg width="22" height="23" viewBox="0 0 22 23" fill="none" xmlns="http://www.w3.org/2000/svg">
<path fill-rule="evenodd" clip-rule="evenodd" d="M15.4348 1.40135H3.05856C2.40759 1.40135 1.87987 1.92907 1.87987 2.58004V15.5457C1.87987 16.1967 2.40759 16.7244 3.05856 16.7244H15.4348C16.0858 16.7244 16.6135 16.1967 16.6135 15.5457V2.58004C16.6135 1.92907 16.0858 1.40135 15.4348 1.40135ZM3.05856 0.222656C1.75661 0.222656 0.701172 1.27809 0.701172 2.58004V15.5457C0.701172 16.8476 1.75661 17.9031 3.05856 17.9031H15.4348C16.7368 17.9031 17.7922 16.8476 17.7922 15.5457V2.58004C17.7922 1.2781 16.7368 0.222656 15.4348 0.222656H3.05856Z" fill="#1A262F"/>
<path fill-rule="evenodd" clip-rule="evenodd" d="M11.8988 1.40135H6.59471V5.52678C6.59471 6.17775 7.12243 6.70547 7.7734 6.70547H10.7201C11.3711 6.70547 11.8988 6.17775 11.8988 5.52678V1.40135ZM5.41602 0.222656V5.52678C5.41602 6.82873 6.47145 7.88417 7.7734 7.88417H10.7201C12.0221 7.88417 13.0775 6.82873 13.0775 5.52678V0.222656H5.41602Z" fill="#1A262F"/>
<path fill-rule="evenodd" clip-rule="evenodd" d="M19.5518 17.9031L19.5518 0.222656L20.7305 0.222656L20.7305 17.9031L19.5518 17.9031Z" fill="#1A262F"/>
<path fill-rule="evenodd" clip-rule="evenodd" d="M0.699951 19.6924L17.791 19.6924L17.791 20.8711L0.699951 20.8711L0.699951 19.6924Z" fill="#1A262F"/>
<path fill-rule="evenodd" clip-rule="evenodd" d="M18.3809 0.812003C18.3809 0.486516 18.6447 0.222656 18.9702 0.222656H21.3276C21.6531 0.222656 21.9169 0.486516 21.9169 0.812003C21.9169 1.13749 21.6531 1.40135 21.3276 1.40135H18.9702C18.6447 1.40135 18.3809 1.13749 18.3809 0.812003Z" fill="#1A262F"/>
<path fill-rule="evenodd" clip-rule="evenodd" d="M17.2017 18.4922C17.5272 18.4922 17.791 18.756 17.791 19.0815L17.791 21.4389C17.791 21.7644 17.5272 22.0283 17.2017 22.0283C16.8762 22.0283 16.6123 21.7644 16.6123 21.4389L16.6123 19.0815C16.6123 18.756 16.8762 18.4922 17.2017 18.4922Z" fill="#1A262F"/>
<path fill-rule="evenodd" clip-rule="evenodd" d="M18.3809 17.312C18.3809 16.9865 18.6447 16.7227 18.9702 16.7227H21.3276C21.6531 16.7227 21.9169 16.9865 21.9169 17.312C21.9169 17.6375 21.6531 17.9014 21.3276 17.9014H18.9702C18.6447 17.9014 18.3809 17.6375 18.3809 17.312Z" fill="#1A262F"/>
<path fill-rule="evenodd" clip-rule="evenodd" d="M1.28956 18.4922C1.61505 18.4922 1.87891 18.756 1.87891 19.0815L1.87891 21.4389C1.87891 21.7644 1.61505 22.0283 1.28956 22.0283C0.964072 22.0283 0.700212 21.7644 0.700212 21.4389L0.700212 19.0815C0.700212 18.756 0.964072 18.4922 1.28956 18.4922Z" fill="#1A262F"/>
</svg>
