<svg width="13" height="28" viewBox="0 0 13 28" fill="none" xmlns="http://www.w3.org/2000/svg">
<path d="M7.92446 11.9367C5.18074 10.6991 4.08324 10.0509 4.08324 8.57731C4.08324 7.36842 4.79705 6.18947 7.04674 6.18947C8.44325 6.18947 9.44536 6.48536 10.202 6.79852C10.873 7.07599 11.6178 6.67072 11.8118 5.92698L11.9447 5.41809C12.1055 4.80215 11.8343 4.13899 11.291 3.87877C10.4496 3.47465 9.39822 3.20871 7.9244 3.12465V1.31134C7.9244 0.587175 7.3778 0 6.70366 0H6.45716C5.78302 0 5.23642 0.587175 5.23642 1.31134L5.23534 3.24211C2.08006 3.86152 0.131462 6.18947 0.131462 9.13684C0.131462 12.2902 2.16138 13.9113 5.45375 15.2963C7.92417 16.2403 9.07629 17.0946 9.07629 18.7158C9.07629 20.2781 7.81374 21.4571 5.56404 21.4571C4.31971 21.4571 3.0036 21.1209 1.8526 20.6247C1.17202 20.3311 0.405725 20.7225 0.207436 21.4812L0.0455997 22.103C-0.119452 22.7373 0.175285 23.4086 0.740092 23.6642C1.9512 24.211 3.54391 24.5933 5.15255 24.7291V26.6887C5.15255 27.4128 5.69916 28 6.37329 28C7.04743 28 7.59403 27.4128 7.59403 26.6887V24.4044C11.1074 23.7263 13 21.221 13 18.1849C13 15.2675 11.5456 13.4402 7.9241 11.9368L7.92446 11.9367Z" fill="white"/>
</svg>
