<svg width="22" height="23" viewBox="0 0 22 23" fill="none" xmlns="http://www.w3.org/2000/svg">
<path d="M14.398 -0.0078125L13.5073 1.3086C13.1706 1.8064 11.5195 4.27329 9.94455 7.09417C8.78231 5.12509 7.77215 3.59849 7.69611 3.52106L6.79456 2.20464L5.90388 3.52106C5.32819 4.37285 0.277344 11.8952 0.277344 15.2139C0.27766 16.3333 0.555967 17.4345 1.08638 18.4149C1.61679 19.3954 2.38207 20.2233 3.31103 20.8216C4.23999 21.42 5.30246 21.7693 6.39959 21.8372C7.49672 21.905 8.59289 21.6891 9.5861 21.2096C10.7003 22.1371 12.0501 22.7236 13.4785 22.9008C14.907 23.078 16.3555 22.8388 17.6557 22.2108C18.956 21.5829 20.0546 20.5921 20.8238 19.3535C21.5931 18.1149 22.0014 16.6794 22.0014 15.2139C22.0014 11.32 15.9838 2.32633 15.2887 1.3086L14.398 -0.0078125ZM2.44975 15.2139C2.44975 13.5103 4.8394 9.21813 6.79456 6.14282C7.3268 6.98355 8.0437 8.14509 8.73887 9.373C7.71037 11.1664 7.04899 13.1532 6.79456 15.2139C6.79756 16.7198 7.23165 18.1922 8.0437 19.4507C7.39501 19.6491 6.70979 19.6902 6.04273 19.5708C5.37567 19.4515 4.74524 19.1749 4.20178 18.7633C3.65831 18.3517 3.21686 17.8164 2.91266 17.2001C2.60846 16.5838 2.44994 15.9037 2.44975 15.2139ZM14.398 20.745C12.9576 20.745 11.5762 20.1623 10.5577 19.125C9.53916 18.0877 8.96697 16.6808 8.96697 15.2139C8.96697 13.0789 12.0083 7.64729 14.398 3.9193C16.7876 7.63623 19.829 13.0678 19.829 15.2139C19.829 16.6808 19.2568 18.0877 18.2383 19.125C17.2198 20.1623 15.8384 20.745 14.398 20.745Z" fill="white"/>
</svg>
