<svg width="45" height="16" viewBox="0 0 45 16" fill="none" xmlns="http://www.w3.org/2000/svg">
<path d="M5.48403 1.78805C5.48403 1.78805 15.9862 -2.23506 25.1815 1.78805C34.3118 5.78137 37.8718 10.2714 44.8715 10.8276C44.8991 10.8276 44.9066 10.8699 44.8765 10.8748C43.7199 11.1579 35.6436 12.787 26.2655 5.81117C16.1289 -1.73093 1.93407 3.29796 5.48403 1.78805Z" fill="#0582CA"/>
<path d="M0.554343 5.92282C0.554343 5.92282 11.0565 1.8997 20.2518 5.92282C29.3721 9.91365 32.9371 14.3987 39.9218 14.9599C39.9544 14.9624 39.9619 15.0071 39.9293 15.0146C38.7101 15.3101 30.6689 16.8895 21.3359 9.94593C11.1992 2.40383 -2.99561 7.43273 0.554343 5.92282Z" fill="white"/>
</svg>
