<svg width="102" height="54" viewBox="0 0 102 54" fill="none" xmlns="http://www.w3.org/2000/svg">
<path d="M25.0794 11.5989H13.178V15.0672H21.6193C21.201 19.9219 17.0821 22.0057 13.1923 22.0057C11.96 22.011 10.739 21.7752 9.60055 21.312C8.46209 20.8488 7.429 20.1674 6.56158 19.3078C5.69417 18.4482 5.00981 17.4274 4.54847 16.3052C4.08714 15.1829 3.85805 13.9817 3.87461 12.7715C3.87461 7.52102 8.01348 3.47856 13.2037 3.47856C17.2076 3.47856 19.567 5.98526 19.567 5.98526L22.0385 3.47016C22.0385 3.47016 18.8635 0 13.0744 0C5.70259 0 0 6.11036 0 12.7099C0 19.1769 5.36418 25.4833 13.2607 25.4833C20.2067 25.4833 25.2914 20.8098 25.2914 13.8993C25.2914 12.441 25.0756 11.5989 25.0756 11.5989H25.0794Z" fill="#4885ED"/>
<path d="M34.8295 9.08687C29.9454 9.08687 26.4453 12.8371 26.4453 17.2091C26.4453 21.6474 29.8389 25.4667 34.8866 25.4667C39.4551 25.4667 43.1976 22.0377 43.1976 17.3043C43.1976 11.8895 38.8439 9.08594 34.8295 9.08594V9.08687ZM34.877 12.304C37.2782 12.304 39.554 14.2114 39.554 17.2838C39.554 20.29 37.2878 22.2524 34.8656 22.2524C32.204 22.2524 30.1127 20.1593 30.1127 17.2595C30.1127 14.4214 32.185 12.304 34.8847 12.304H34.877Z" fill="#DB3236"/>
<path d="M53.0639 9.08687C48.1798 9.08687 44.6797 12.8371 44.6797 17.2091C44.6797 21.6474 48.0733 25.4667 53.1209 25.4667C57.6895 25.4667 61.4319 22.0377 61.4319 17.3043C61.4319 11.8895 57.0782 9.08594 53.0639 9.08594V9.08687ZM53.1114 12.304C55.5126 12.304 57.7883 14.2114 57.7883 17.2838C57.7883 20.29 55.5221 22.2524 53.1 22.2524C50.4384 22.2524 48.3471 20.1593 48.3471 17.2595C48.3471 14.4214 50.4194 12.304 53.119 12.304H53.1114Z" fill="#F4C20D"/>
<path d="M70.9453 9.09766C66.4623 9.09766 62.9395 12.9534 62.9395 17.2815C62.9395 22.2109 67.0241 25.4803 70.8674 25.4803C73.2439 25.4803 74.5081 24.5533 75.4302 23.4899V25.105C75.4302 27.931 73.683 29.6236 71.0461 29.6236C68.4985 29.6236 67.2209 27.763 66.7684 26.708L63.563 28.015C64.6999 30.377 66.989 32.8389 71.0727 32.8389C75.5405 32.8389 78.9265 30.082 78.9265 24.2993V9.58966H75.4435V10.977C74.3694 9.838 72.8978 9.09766 70.9472 9.09766H70.9453ZM71.2685 12.3092C73.4663 12.3092 75.723 14.1521 75.723 17.2993C75.723 20.4987 73.4701 22.2613 71.22 22.2613C68.8303 22.2613 66.6068 20.3568 66.6068 17.3291C66.6068 14.1848 68.9168 12.3092 71.2685 12.3092Z" fill="#4885ED"/>
<path d="M94.4935 9.07812C90.2653 9.07812 86.7148 12.383 86.7148 17.2564C86.7148 22.4154 90.6722 25.4748 94.8899 25.4748C98.4185 25.4748 100.593 23.5796 101.877 21.8805L98.9936 19.9965C98.2455 21.1355 96.9945 22.2511 94.908 22.2511C92.5638 22.2511 91.4859 20.9908 90.8176 19.7678L101.999 15.2118L101.429 13.8768C100.349 11.2627 97.8282 9.07812 94.4935 9.07812ZM94.639 12.2281C96.1628 12.2281 97.2588 13.0235 97.7246 13.9776L90.2567 17.0426C89.9335 14.6694 92.2245 12.2281 94.6295 12.2281H94.639Z" fill="#DB3236"/>
<path d="M81.375 24.9895H85.0481V0.849609H81.375V24.9895Z" fill="#3CBA54"/>
<path d="M16.5 44.0669C16.5 44.2167 16.4141 44.3801 16.2422 44.557L12.6427 48.1718L13.4955 53.2773C13.5021 53.3249 13.5054 53.393 13.5054 53.4815C13.5054 53.6245 13.4707 53.7453 13.4013 53.844C13.3319 53.9427 13.2311 53.9921 13.0989 53.9921C12.9733 53.9921 12.841 53.9512 12.7022 53.8695L8.25 51.4597L3.79778 53.8695C3.65234 53.9512 3.52013 53.9921 3.40114 53.9921C3.26232 53.9921 3.1582 53.9427 3.08879 53.844C3.01938 53.7453 2.98468 53.6245 2.98468 53.4815C2.98468 53.4407 2.99129 53.3726 3.00451 53.2773L3.85727 48.1718L0.247897 44.557C0.0826322 44.3732 0 44.2099 0 44.0669C0 43.815 0.185096 43.6585 0.555288 43.5972L5.53305 42.8518L7.76412 38.2058C7.88972 37.9267 8.05168 37.7871 8.25 37.7871C8.44832 37.7871 8.61028 37.9267 8.73588 38.2058L10.9669 42.8518L15.9447 43.5972C16.3149 43.6585 16.5 43.815 16.5 44.0669Z" fill="#FFC403"/>
<path d="M59 44.0669C59 44.2167 58.9141 44.3801 58.7422 44.557L55.1427 48.1718L55.9955 53.2773C56.0021 53.3249 56.0054 53.393 56.0054 53.4815C56.0054 53.6245 55.9707 53.7453 55.9013 53.844C55.8319 53.9427 55.7311 53.9921 55.5989 53.9921C55.4733 53.9921 55.341 53.9512 55.2022 53.8695L50.75 51.4597L46.2978 53.8695C46.1523 53.9512 46.0201 53.9921 45.9011 53.9921C45.7623 53.9921 45.6582 53.9427 45.5888 53.844C45.5194 53.7453 45.4847 53.6245 45.4847 53.4815C45.4847 53.4407 45.4913 53.3726 45.5045 53.2773L46.3573 48.1718L42.7479 44.557C42.5826 44.3732 42.5 44.2099 42.5 44.0669C42.5 43.815 42.6851 43.6585 43.0553 43.5972L48.0331 42.8518L50.2641 38.2058C50.3897 37.9267 50.5517 37.7871 50.75 37.7871C50.9483 37.7871 51.1103 37.9267 51.2359 38.2058L53.4669 42.8518L58.4447 43.5972C58.8149 43.6585 59 43.815 59 44.0669Z" fill="#FFC403"/>
<path d="M38.5 44.0669C38.5 44.2167 38.4062 44.3801 38.2188 44.557L34.2921 48.1718L35.2224 53.2773C35.2296 53.3249 35.2332 53.393 35.2332 53.4815C35.2332 53.6245 35.1953 53.7453 35.1196 53.844C35.0439 53.9427 34.9339 53.9921 34.7897 53.9921C34.6526 53.9921 34.5084 53.9512 34.357 53.8695L29.5 51.4597L24.643 53.8695C24.4844 53.9512 24.3401 53.9921 24.2103 53.9921C24.0589 53.9921 23.9453 53.9427 23.8696 53.844C23.7939 53.7453 23.756 53.6245 23.756 53.4815C23.756 53.4407 23.7632 53.3726 23.7776 53.2773L24.7079 48.1718L20.7704 44.557C20.5901 44.3732 20.5 44.2099 20.5 44.0669C20.5 43.815 20.7019 43.6585 21.1058 43.5972L26.5361 42.8518L28.97 38.2058C29.107 37.9267 29.2837 37.7871 29.5 37.7871C29.7163 37.7871 29.893 37.9267 30.03 38.2058L32.4639 42.8518L37.8942 43.5972C38.2981 43.6585 38.5 43.815 38.5 44.0669Z" fill="#FFC403"/>
<path d="M81 44.0669C81 44.2167 80.9062 44.3801 80.7188 44.557L76.7921 48.1718L77.7224 53.2773C77.7296 53.3249 77.7332 53.393 77.7332 53.4815C77.7332 53.6245 77.6953 53.7453 77.6196 53.844C77.5439 53.9427 77.4339 53.9921 77.2897 53.9921C77.1526 53.9921 77.0084 53.9512 76.857 53.8695L72 51.4597L67.143 53.8695C66.9844 53.9512 66.8401 53.9921 66.7103 53.9921C66.5589 53.9921 66.4453 53.9427 66.3696 53.844C66.2939 53.7453 66.256 53.6245 66.256 53.4815C66.256 53.4407 66.2632 53.3726 66.2776 53.2773L67.2079 48.1718L63.2704 44.557C63.0901 44.3732 63 44.2099 63 44.0669C63 43.815 63.2019 43.6585 63.6058 43.5972L69.0361 42.8518L71.47 38.2058C71.607 37.9267 71.7837 37.7871 72 37.7871C72.2163 37.7871 72.393 37.9267 72.53 38.2058L74.9639 42.8518L80.3942 43.5972C80.7981 43.6585 81 43.815 81 44.0669Z" fill="#FFC403"/>
<path d="M101.5 44.0669C101.5 44.2167 101.414 44.3801 101.242 44.557L97.6427 48.1718L98.4955 53.2773C98.5021 53.3249 98.5054 53.393 98.5054 53.4815C98.5054 53.6245 98.4707 53.7453 98.4013 53.844C98.3319 53.9427 98.2311 53.9921 98.0989 53.9921C97.9733 53.9921 97.841 53.9512 97.7022 53.8695L93.25 51.4597L88.7978 53.8695C88.6523 53.9512 88.5201 53.9921 88.4011 53.9921C88.2623 53.9921 88.1582 53.9427 88.0888 53.844C88.0194 53.7453 87.9847 53.6245 87.9847 53.4815C87.9847 53.4407 87.9913 53.3726 88.0045 53.2773L88.8573 48.1718L85.2479 44.557C85.0826 44.3732 85 44.2099 85 44.0669C85 43.815 85.1851 43.6585 85.5553 43.5972L90.5331 42.8518L92.7641 38.2058C92.8897 37.9267 93.0517 37.7871 93.25 37.7871C93.4483 37.7871 93.6103 37.9267 93.7359 38.2058L95.9669 42.8518L100.945 43.5972C101.315 43.6585 101.5 43.815 101.5 44.0669Z" fill="#FFC403"/>
</svg>
