<svg width="111" height="52" viewBox="0 0 111 52" fill="none" xmlns="http://www.w3.org/2000/svg">
<path d="M1.03028 22.2244C0.91011 22.2244 0.782432 22.2046 0.64474 22.1673C0.507048 22.1276 0.439453 22.0283 0.439453 21.8668C0.439453 21.7998 0.451971 21.7302 0.479509 21.6632C0.504544 21.5961 0.532082 21.5316 0.557117 21.472C1.31067 19.8553 2.06172 18.2386 2.80275 16.6194C3.54379 15.0027 4.27481 13.3761 4.99582 11.7445C5.58664 10.3985 6.17496 9.05247 6.75828 7.70398C7.34159 6.35549 7.94243 5.01694 8.56079 3.68831C8.58583 3.63616 8.62839 3.61133 8.68847 3.61133C8.74856 3.61133 8.79112 3.63616 8.81615 3.68831C9.43451 5.01694 10.0354 6.35549 10.6187 7.70398C11.202 9.05247 11.7903 10.3985 12.3811 11.7445C13.1021 13.3786 13.8332 15.0027 14.5742 16.6194C15.3152 18.2361 16.0663 19.8553 16.8198 21.472C16.8449 21.5316 16.8724 21.5961 16.8974 21.6632C16.9225 21.7302 16.935 21.7998 16.935 21.8668C16.935 22.0283 16.8674 22.1276 16.7297 22.1673C16.592 22.2046 16.4643 22.2244 16.3442 22.2244H13.743C13.5302 22.2244 13.365 22.1177 13.2549 21.9066C13.1873 21.77 13.1222 21.6259 13.0621 21.472C13.002 21.318 12.9419 21.174 12.8818 21.0374C12.6941 20.6127 12.5113 20.1781 12.3361 19.7361C12.1608 19.294 11.9731 18.8594 11.7753 18.4348C11.7502 18.3677 11.7027 18.3329 11.6326 18.3329H5.26369C5.19359 18.3329 5.14853 18.3677 5.12099 18.4348C4.9132 18.8594 4.72043 19.294 4.53517 19.7361C4.34991 20.1781 4.15965 20.6177 3.96187 21.0498C3.90179 21.1864 3.8392 21.3304 3.77661 21.4844C3.71152 21.6384 3.64142 21.7824 3.56382 21.919C3.45366 22.1251 3.29344 22.2269 3.08815 22.2269L1.03028 22.2244ZM6.33268 15.6633H10.6162C10.2732 14.8115 9.9252 13.9622 9.57221 13.1178C9.22172 12.271 8.86872 11.4216 8.51824 10.5698C8.15773 11.4216 7.79472 12.271 7.43172 13.1178C7.06621 13.9646 6.7007 14.814 6.33268 15.6633Z" fill="#051923"/>
<path d="M18.377 13.3016C18.377 12.112 18.5847 10.9697 19.0028 9.87447C19.4184 8.78177 20.0067 7.80579 20.7653 6.94405C21.5238 6.08231 22.4251 5.40434 23.4691 4.90766C24.5105 4.4085 25.6596 4.16016 26.9114 4.16016C28.1631 4.16016 29.3122 4.41098 30.3587 4.91263C31.4051 5.41428 32.3139 6.09721 33.08 6.96144C33.8486 7.82566 34.4444 8.80661 34.8675 9.90427C35.2906 11.0019 35.5034 12.1468 35.5034 13.3388C35.5034 14.5309 35.2906 15.6683 34.8675 16.7535C34.4444 17.8387 33.8436 18.8073 33.0725 19.6566C32.3014 20.5084 31.3926 21.1789 30.3462 21.6731C29.2997 22.1673 28.1531 22.4132 26.9089 22.4132C25.6396 22.4132 24.483 22.1673 23.4415 21.6806C22.3976 21.1913 21.5013 20.5208 20.7453 19.669C19.9917 18.8172 19.4059 17.8462 18.9953 16.751C18.5847 15.6583 18.377 14.506 18.377 13.2966V13.3016ZM27.0265 19.3412C28.1231 19.3412 29.0544 19.0432 29.8129 18.4472C30.5715 17.8512 31.1523 17.0912 31.5503 16.1624C31.9484 15.2361 32.1487 14.2825 32.1487 13.3041C32.1487 12.3008 31.9409 11.3347 31.5303 10.4059C31.1197 9.47712 30.5239 8.71472 29.7478 8.11374C28.9717 7.51275 28.0304 7.21474 26.9239 7.21474C25.8424 7.21474 24.9111 7.51275 24.125 8.10877C23.3389 8.70479 22.7355 9.46222 22.3175 10.3861C21.8969 11.3099 21.6866 12.2685 21.6866 13.2643C21.6866 14.2676 21.9019 15.2361 22.335 16.1674C22.7681 17.0987 23.3839 17.8611 24.1826 18.4521C24.9812 19.0432 25.9275 19.3412 27.0265 19.3412Z" fill="#051923"/>
<path d="M41.1921 12.6509C41.1921 13.1625 41.1921 13.6716 41.1871 14.1757C41.1821 14.6823 41.1821 15.1865 41.1821 15.6881C41.1821 16.4555 41.3673 17.1061 41.7403 17.6475C42.1134 18.1889 42.6091 18.6011 43.2274 18.8867C43.8458 19.1723 44.5142 19.3139 45.2352 19.3139C46.3593 19.3139 47.3081 19.0035 48.0792 18.3826C48.8528 17.7618 49.2383 16.8628 49.2383 15.6906C49.2383 15.1889 49.2383 14.6848 49.2308 14.1782C49.2283 13.6716 49.2258 13.165 49.2258 12.6534C49.2258 11.7693 49.2258 10.8852 49.2308 9.99863C49.2358 9.11454 49.2408 8.22796 49.2508 7.34387L49.2633 5.46642L49.2759 4.84308C49.2934 4.67173 49.3385 4.54507 49.4111 4.46064C49.4837 4.3762 49.6138 4.33398 49.8041 4.33398H51.9796C52.3326 4.33398 52.5079 4.51279 52.5079 4.8704C52.5079 5.33728 52.5004 5.80416 52.4879 6.26607C52.4753 6.73047 52.4603 7.19238 52.4428 7.65181C52.4178 9.41255 52.4027 11.1708 52.4027 12.9241C52.4027 13.3934 52.4027 13.8653 52.4102 14.3421C52.4127 14.8189 52.4153 15.2957 52.4153 15.7725C52.4077 17.1334 52.0748 18.3131 51.4189 19.3089C50.7629 20.3048 49.8892 21.0721 48.8002 21.6135C47.7087 22.1549 46.502 22.4256 45.1701 22.4256C43.8483 22.4256 42.6416 22.1549 41.5476 21.6135C40.4535 21.0746 39.5798 20.3048 38.9289 19.3089C38.278 18.3131 37.9501 17.1359 37.9501 15.7725C37.9501 15.2957 37.9501 14.8189 37.9551 14.3421C37.9601 13.8653 37.9626 13.3934 37.9626 12.9241C37.9626 11.1708 37.9501 9.41255 37.9225 7.65181C37.915 7.19238 37.9 6.73047 37.8825 6.26607C37.8649 5.80168 37.8574 5.33728 37.8574 4.8704C37.8574 4.51279 38.0327 4.33398 38.3857 4.33398H40.6113C40.8015 4.33398 40.9317 4.3762 41.0043 4.46064C41.0769 4.54507 41.122 4.67173 41.1395 4.84308L41.152 5.46642L41.1645 7.34387C41.1721 8.22796 41.1796 9.11454 41.1846 9.99863C41.1871 10.8827 41.1896 11.7693 41.1896 12.6534L41.1921 12.6509Z" fill="#051923"/>
<path d="M54.9131 22.2244C54.7929 22.2244 54.6652 22.2046 54.5276 22.1673C54.3899 22.1276 54.3223 22.0283 54.3223 21.8668C54.3223 21.7998 54.3348 21.7302 54.3623 21.6632C54.3874 21.5961 54.4149 21.5316 54.4399 21.472C55.1935 19.8553 55.9445 18.2386 56.6856 16.6194C57.4266 15.0027 58.1576 13.3761 58.8786 11.7445C59.4695 10.3985 60.0578 9.05247 60.6386 7.70398C61.2219 6.35549 61.8252 5.01694 62.4411 3.68831C62.4686 3.63616 62.5087 3.61133 62.5713 3.61133C62.6339 3.61133 62.6739 3.63616 62.7015 3.68831C63.3173 5.01694 63.9182 6.35549 64.504 7.70398C65.0848 9.05247 65.6756 10.3985 66.2664 11.7445C66.9849 13.3786 67.7185 15.0027 68.4595 16.6194C69.203 18.2361 69.9516 19.8553 70.7051 21.472C70.7302 21.5316 70.7577 21.5961 70.7802 21.6632C70.8078 21.7302 70.8203 21.7998 70.8203 21.8668C70.8203 22.0283 70.7527 22.1276 70.615 22.1673C70.4773 22.2046 70.3496 22.2244 70.2295 22.2244H67.6308C67.4155 22.2244 67.2528 22.1177 67.1427 21.9066C67.0751 21.77 67.0075 21.6259 66.9499 21.472C66.8898 21.318 66.8272 21.174 66.7696 21.0374C66.5819 20.6127 66.3991 20.1781 66.2214 19.7361C66.0436 19.294 65.8584 18.8594 65.6606 18.4348C65.6356 18.3677 65.588 18.3329 65.5179 18.3329H59.149C59.0814 18.3329 59.0338 18.3677 59.0063 18.4348C58.801 18.8594 58.6057 19.294 58.423 19.7361C58.2377 20.1781 58.0475 20.6177 57.8497 21.0498C57.7896 21.1864 57.727 21.3304 57.6644 21.4844C57.5993 21.6384 57.5292 21.7824 57.4516 21.919C57.3415 22.1251 57.1813 22.2269 56.976 22.2269H54.9156L54.9131 22.2244ZM60.213 15.6633H64.499C64.1535 14.8115 63.808 13.9622 63.455 13.1178C63.102 12.271 62.7515 11.4216 62.401 10.5698C62.038 11.4216 61.6775 12.271 61.312 13.1178C60.9465 13.9646 60.581 14.814 60.213 15.6633Z" fill="#051923"/>
<path d="M18.1852 23.249C18.1852 23.249 28.6874 19.2259 37.8827 23.249C47.013 27.2423 50.5729 31.7323 57.5727 32.2886C57.6002 32.2886 57.6077 32.3308 57.5777 32.3358C56.4211 32.6189 48.3448 34.248 38.9667 27.2721C28.8301 19.73 14.6352 24.7589 18.1852 23.249Z" fill="#051923"/>
<path d="M55.3838 45.5657C55.2636 45.5657 55.1359 45.5458 54.9983 45.5086C54.8606 45.4713 54.793 45.3695 54.793 45.2106C54.793 45.1435 54.8055 45.074 54.833 45.0045C54.8581 44.9374 54.8856 44.8728 54.9106 44.8132C55.6642 43.199 56.4152 41.5798 57.1563 39.9631C57.8973 38.3489 58.6283 36.7198 59.3493 35.0857C59.9402 33.7422 60.5285 32.3962 61.1118 31.0477C61.6926 29.6968 62.2959 28.3582 62.9118 27.0321C62.9393 26.9799 62.9794 26.9551 63.042 26.9551C63.1046 26.9551 63.1446 26.9799 63.1722 27.0321C63.788 28.3607 64.3889 29.6968 64.9747 31.0477C65.5555 32.3962 66.1463 33.7422 66.7371 35.0857C67.4557 36.7198 68.1892 38.3465 68.9302 39.9631C69.6738 41.5798 70.4223 43.199 71.1758 44.8132C71.2009 44.8728 71.2284 44.9374 71.2509 45.0045C71.2785 45.074 71.291 45.1435 71.291 45.2106C71.291 45.3695 71.2234 45.4713 71.0857 45.5086C70.948 45.5483 70.8204 45.5657 70.7002 45.5657H68.1016C67.8863 45.5657 67.7235 45.4589 67.6134 45.2454C67.5458 45.1088 67.4782 44.9672 67.4206 44.8108C67.3605 44.6568 67.2979 44.5152 67.2404 44.3762C67.0526 43.9515 66.8698 43.5169 66.6921 43.0773C66.5168 42.6328 66.3291 42.1982 66.1313 41.776C66.1063 41.709 66.0587 41.6742 65.9886 41.6742H59.6197C59.5521 41.6742 59.5045 41.709 59.477 41.776C59.2717 42.2007 59.0765 42.6353 58.8937 43.0773C58.7084 43.5194 58.5182 43.9565 58.3204 44.3911C58.2628 44.5276 58.1977 44.6717 58.1351 44.8257C58.0726 44.9796 57.9999 45.1237 57.9248 45.2603C57.8147 45.4639 57.6545 45.5657 57.4492 45.5657H55.3888H55.3838ZM60.6862 39.0046H64.9722C64.6267 38.1552 64.2812 37.3059 63.9282 36.4591C63.5752 35.6122 63.2247 34.7629 62.8743 33.9136C62.5112 34.7654 62.1507 35.6147 61.7852 36.4591L60.6862 39.0046Z" fill="#0582CA"/>
<path d="M78.6509 27.6699C79.9201 27.6699 81.0692 27.876 82.1007 28.2883C83.1296 28.703 83.9458 29.3388 84.5516 30.203C85.1574 31.0672 85.4579 32.1848 85.4579 33.5556C85.4579 34.6533 85.2451 35.6441 84.8145 36.5282C84.3864 37.4123 83.7004 38.1549 82.7566 38.7509C82.6965 38.7782 82.6665 38.8179 82.6665 38.88C82.6665 38.9148 82.7816 39.1135 83.0095 39.4785C83.2373 39.8436 83.5227 40.2955 83.8706 40.832C84.2186 41.3684 84.5741 41.9147 84.9396 42.466C85.3052 43.0174 85.6231 43.5091 85.8985 43.9337C86.1739 44.3609 86.3516 44.6316 86.4267 44.7508C86.4718 44.8178 86.5118 44.8948 86.5569 44.9743C86.5995 45.0562 86.6195 45.1432 86.6195 45.235C86.6195 45.389 86.5419 45.4834 86.3817 45.5157C86.2214 45.5479 86.0913 45.5678 85.9886 45.5678H83.43C83.2573 45.5678 83.1121 45.4908 82.9919 45.3369C82.7266 44.9966 82.4762 44.639 82.2434 44.2566C82.0131 43.8791 81.7752 43.5116 81.5374 43.1539C81.1619 42.5778 80.7763 41.9992 80.3908 41.4255C80.0078 40.8518 79.6272 40.2707 79.2592 39.6821C79.2242 39.625 79.1791 39.5952 79.1165 39.5952H76.8133C76.7106 39.5952 76.6581 39.6474 76.6581 39.7492C76.6581 40.3353 76.6581 40.9263 76.6506 41.5174C76.6506 42.1084 76.6406 42.6995 76.6305 43.2856C76.6305 43.5339 76.6381 43.8319 76.6506 44.1846C76.6656 44.5397 76.6506 44.8302 76.618 45.0587C76.593 45.2301 76.5479 45.3567 76.4828 45.4412C76.4177 45.5256 76.2876 45.5703 76.0898 45.5703H73.8642C73.5112 45.5703 73.3359 45.3915 73.3359 45.0339C73.3359 44.572 73.3434 44.1125 73.361 43.6481C73.3785 43.1837 73.3935 42.7169 73.401 42.25C73.4286 40.3105 73.4411 38.3684 73.4411 36.4165C73.4411 34.5688 73.4286 32.7137 73.401 30.8512C73.3935 30.4066 73.381 29.9696 73.3685 29.53C73.356 29.0904 73.3485 28.6509 73.3485 28.2088C73.3485 27.8512 73.5237 27.6724 73.8767 27.6724L78.6509 27.6699ZM76.6556 36.5257H79.2542C80.1054 36.5257 80.7939 36.265 81.3271 35.736C81.8578 35.2071 82.1232 34.5192 82.1232 33.6673C82.1232 32.7907 81.8729 32.0854 81.3772 31.5465C80.879 31.0101 80.183 30.7444 79.2918 30.7444H76.6406C76.6481 31.7055 76.6531 32.669 76.6531 33.6351L76.6556 36.5257Z" fill="#0582CA"/>
<path d="M88.8672 28.1914C88.8672 27.8413 89.0424 27.6699 89.3954 27.6699H91.6235C91.9765 27.6699 92.1518 27.8438 92.1518 28.1914C92.1518 29.5946 92.1468 31.0002 92.1368 32.4033C92.1292 33.8064 92.1242 35.212 92.1242 36.6151C92.1242 38.0183 92.1292 39.4239 92.1368 40.827C92.1468 42.2301 92.1518 43.6357 92.1518 45.0388C92.1518 45.389 91.9765 45.5628 91.6235 45.5628H89.3954C89.0424 45.5628 88.8672 45.389 88.8672 45.0388C88.8672 43.6357 88.8722 42.2301 88.8822 40.827C88.8897 39.4239 88.8947 38.0183 88.8947 36.6151C88.8947 35.212 88.8897 33.8064 88.8822 32.4033C88.8722 31.0002 88.8672 29.5946 88.8672 28.1914Z" fill="#0582CA"/>
<path d="M94.6592 45.5657C94.539 45.5657 94.4088 45.5458 94.2736 45.5086C94.1359 45.4713 94.0684 45.3695 94.0684 45.2106C94.0684 45.1435 94.0809 45.074 94.1084 45.0045C94.1334 44.9374 94.161 44.8728 94.1835 44.8132C94.9396 43.199 95.6881 41.5798 96.4291 39.9631C97.1702 38.3489 97.9037 36.7198 98.6222 35.0857C99.213 33.7422 99.8039 32.3962 100.385 31.0477C100.968 29.6968 101.571 28.3582 102.187 27.0321C102.215 26.9799 102.255 26.9551 102.317 26.9551C102.38 26.9551 102.42 26.9799 102.448 27.0321C103.063 28.3607 103.664 29.6968 104.25 31.0477C104.831 32.3962 105.422 33.7422 106.013 35.0857C106.731 36.7198 107.465 38.3465 108.206 39.9631C108.949 41.5798 109.698 43.199 110.451 44.8132C110.476 44.8728 110.504 44.9374 110.526 45.0045C110.554 45.074 110.566 45.1435 110.566 45.2106C110.566 45.3695 110.499 45.4713 110.361 45.5086C110.223 45.5483 110.096 45.5657 109.976 45.5657H107.377C107.162 45.5657 106.999 45.4589 106.889 45.2454C106.821 45.1088 106.754 44.9672 106.696 44.8108C106.636 44.6568 106.573 44.5152 106.516 44.3762C106.328 43.9515 106.145 43.5169 105.967 43.0773C105.792 42.6328 105.604 42.1982 105.407 41.776C105.382 41.709 105.334 41.6742 105.264 41.6742H98.8951C98.8275 41.6742 98.7774 41.709 98.7524 41.776C98.5471 42.2007 98.3518 42.6353 98.1666 43.0773C97.9838 43.5194 97.7936 43.9565 97.5933 44.3911C97.5357 44.5276 97.4706 44.6717 97.408 44.8257C97.3454 44.9796 97.2728 45.1237 97.1952 45.2603C97.0826 45.4639 96.9273 45.5657 96.7196 45.5657H94.6592ZM99.9616 39.0046H104.248C103.902 38.1552 103.557 37.3059 103.204 36.4591C102.851 35.6122 102.5 34.7629 102.15 33.9136C101.787 34.7654 101.426 35.6147 101.061 36.4591C100.695 37.3084 100.33 38.1577 99.9616 39.0046Z" fill="#0582CA"/>
<path d="M13.2555 27.3838C13.2555 27.3838 23.7577 23.3606 32.953 27.3838C42.0733 31.3746 45.6382 35.8596 52.623 36.4209C52.6555 36.4233 52.663 36.468 52.6305 36.4755C51.4113 36.771 43.3701 38.3505 34.037 31.4069C23.9004 23.8648 9.70556 28.8937 13.2555 27.3838Z" fill="#0582CA"/>
</svg>
