<svg width="20" height="22" viewBox="0 0 20 22" fill="none" xmlns="http://www.w3.org/2000/svg">
<path fill-rule="evenodd" clip-rule="evenodd" d="M13.7709 6.70604H6.2365C5.73275 6.70604 5.28469 7.02617 5.12143 7.50272L1.28521 18.7003C1.02313 19.4653 1.59163 20.261 2.40028 20.261H17.6071C18.4157 20.261 18.9842 19.4653 18.7222 18.7003L14.8859 7.50272C14.7227 7.02616 14.2746 6.70604 13.7709 6.70604ZM6.2365 5.52734C5.22901 5.52734 4.33288 6.1676 4.00635 7.1207L0.170141 18.3183C-0.354028 19.8483 0.78298 21.4397 2.40028 21.4397H17.6071C19.2244 21.4397 20.3614 19.8483 19.8372 18.3183L16.001 7.1207C15.6745 6.1676 14.7784 5.52734 13.7709 5.52734H6.2365Z" fill="#1A262F"/>
<path fill-rule="evenodd" clip-rule="evenodd" d="M12.2081 5.52678C12.4902 5.10537 12.6547 4.5986 12.6547 4.05341C12.6547 2.58872 11.4673 1.40135 10.0026 1.40135C8.53794 1.40135 7.35057 2.58872 7.35057 4.05341C7.35057 4.5986 7.51508 5.10537 7.79716 5.52678H6.46547C6.27632 5.07322 6.17188 4.57552 6.17188 4.05341C6.17188 1.93774 7.88696 0.222656 10.0026 0.222656C12.1183 0.222656 13.8334 1.93774 13.8334 4.05341C13.8334 4.57552 13.7289 5.07322 13.5398 5.52678H12.2081Z" fill="#1A262F"/>
</svg>
